<svg width="48" height="48" viewBox="0 0 48 48" xmlns="http://www.w3.org/2000/svg">
  <!-- 背景色 -->
  <rect width="48" height="48" fill="#F4C14E"/>
  
  <!-- 電球（中央配置、ぎりぎりまで大きく） -->
  <g transform="translate(24, 24)">
    <!-- 電球本体（丸みのある形状） -->
    <path d="M0 -12 C-7 -12, -12 -7, -12 -2 C-12 4, -8 9, -5 11 L-5 13 L5 13 L5 11 C8 9, 12 4, 12 -2 C12 -7, 7 -12, 0 -12 Z" 
          fill="#FFFFFF" stroke="#000000" stroke-width="2"/>
    
    <!-- ソケット部分 -->
    <rect x="-5" y="13" width="10" height="7" fill="#FFFFFF" stroke="#000000" stroke-width="2"/>
    
    <!-- ソケットの横線 -->
    <line x1="-5" y1="15" x2="5" y2="15" stroke="#000000" stroke-width="1.5"/>
    <line x1="-5" y1="17.5" x2="5" y2="17.5" stroke="#000000" stroke-width="1.5"/>
    
    <!-- 光の線（3本、等距離・等長） -->
    <g stroke="#000000" stroke-width="2.5" stroke-linecap="round">
      <!-- 真上 -->
      <line x1="0" y1="-18" x2="0" y2="-23" />
      <!-- 左上60度 -->
      <line x1="-10" y1="-14" x2="-13" y2="-18" />
      <!-- 右上60度 -->
      <line x1="10" y1="-14" x2="13" y2="-18" />
    </g>
  </g>
</svg>