<svg width="48" height="48" viewBox="0 0 48 48" xmlns="http://www.w3.org/2000/svg">
  <!-- 角丸四角形背景 -->
  <rect x="2" y="2" width="44" height="44" rx="8" ry="8" fill="#F4C14E"/>
  
  <!-- シンプルな吹き出し（電球入り） -->
  <g transform="translate(12, 14)">
    <!-- 吹き出し -->
    <path d="M0 8 Q0 0 8 0 L16 0 Q24 0 24 8 L24 12 Q24 20 16 20 L8 20 L2 24 L6 20 Q0 20 0 12 Z" 
          fill="white" stroke="#000000" stroke-width="1"/>
    
    <!-- 小さな電球（超シンプル版・光線なし） -->
    <g transform="translate(12, 10)">
      <!-- 電球本体（丸みのある形状） -->
      <path d="M0 -3.5 C-1.8 -3.5, -3 -2.3, -3 -0.5 C-3 1, -2 2.2, -1 2.8 L-1 3.5 L1 3.5 L1 2.8 C2 2.2, 3 1, 3 -0.5 C3 -2.3, 1.8 -3.5, 0 -3.5 Z" 
            fill="white" stroke="#000000" stroke-width="0.8"/>
      
      <!-- ソケット部分（横線なし） -->
      <rect x="-1" y="3.5" width="2" height="2" fill="white" stroke="#000000" stroke-width="0.8"/>
    </g>
  </g>
</svg>