<svg width="192" height="192" viewBox="0 0 192 192" xmlns="http://www.w3.org/2000/svg">
  <!-- 背景 -->
  <rect x="12" y="12" width="168" height="168" rx="30" ry="30" fill="#F4C14E"/>
  
  <!-- 定義（シャドウを追加） -->
  <defs>
    <!-- 電球の影 -->
    <filter id="bulbShadow">
      <feDropShadow dx="2" dy="3" stdDeviation="2" flood-opacity="0.2"/>
    </filter>
  </defs>

  <!-- 電球アイコン（中央配置・吹き出し削除版） -->
  <g transform="translate(96, 96)">
    <!-- 電球本体（丸みのある形状） -->
    <path d="M0 -12 C-6 -12, -10 -8, -10 -3 C-10 2, -7 6, -4 8 L-4 10 L4 10 L4 8 C7 6, 10 2, 10 -3 C10 -8, 6 -12, 0 -12 Z" 
          fill="white" stroke="#000000" stroke-width="1.8"/>
    
    <!-- ソケット部分 -->
    <rect x="-4" y="10" width="8" height="6" fill="white" stroke="#000000" stroke-width="1.8"/>
    <g stroke="#000000" stroke-width="1">
      <line x1="-4" y1="11.5" x2="4" y2="11.5" />
      <line x1="-4" y1="13.5" x2="4" y2="13.5" />
    </g>
    
    <!-- 電球内のテキスト -->
    <text x="0" y="-2" 
          text-anchor="middle" 
          font-family="'Montserrat', sans-serif" 
          font-size="6" 
          font-weight="700" 
          fill="#000000">Any</text>
    
    <!-- 光の線（3本、完全等距離・等長・60度傾斜） -->
    <g stroke="#000000" stroke-width="1.5" stroke-linecap="round">
      <!-- 真上（中心軸） -->
      <line x1="0" y1="-18" x2="0" y2="-22" />
      <!-- 左上60度（電球から6px等距離） -->
      <line x1="-8" y1="-14" x2="-10" y2="-17" />
      <!-- 右上60度（左と完全対称、電球から6px等距離） -->
      <line x1="8" y1="-14" x2="10" y2="-17" />
    </g>
  </g>
</svg>